<?xml version="1.0" encoding="UTF-8"?> <svg xmlns="http://www.w3.org/2000/svg" xmlns:xlink="http://www.w3.org/1999/xlink" version="1.1" id="Camada_1" x="0px" y="0px" viewBox="0 0 327 57" style="enable-background:new 0 0 327 57;" xml:space="preserve"> <style type="text/css"> .st0{fill:#505FFF;} .st1{fill:#131E23;} </style> <path class="st0" d="M316,32.8c1.5,0,2.9-0.3,4.2-0.8c1.3-0.6,2.6-1.4,3.6-2.4c1-1,1.8-2.2,2.4-3.6c0.6-1.3,0.8-2.8,0.8-4.2 c0-2.9-1.2-5.7-3.2-7.8c-2.1-2.1-4.9-3.2-7.8-3.2c-1.5,0-2.9,0.3-4.2,0.8c-1.3,0.6-2.6,1.4-3.6,2.4c-1,1-1.8,2.2-2.4,3.6 c-0.6,1.3-0.8,2.8-0.8,4.2c0,2.9,1.2,5.7,3.2,7.8C310.2,31.6,313,32.8,316,32.8z"></path> <path class="st0" d="M289.1,33.7c-1.5,0-2.9,0.3-4.2,0.8c-1.3,0.6-2.6,1.4-3.6,2.4c-1,1-1.8,2.2-2.4,3.6c-0.6,1.3-0.8,2.8-0.8,4.2 c0,2.9,1.2,5.7,3.2,7.8c2.1,2.1,4.9,3.2,7.8,3.2c1.5,0,2.9-0.3,4.2-0.8c1.3-0.6,2.6-1.4,3.6-2.4c1-1,1.8-2.2,2.4-3.6 c0.6-1.3,0.8-2.8,0.8-4.2c0-2.9-1.2-5.7-3.2-7.8C294.8,34.9,292,33.7,289.1,33.7L289.1,33.7z"></path> <path class="st0" d="M309.1,34.1c-7,3-10.7,10-8.2,15.7c2.4,5.6,10.1,7.8,17.1,4.8c7-3,10.7-10,8.2-15.7 C323.8,33.3,316.1,31.1,309.1,34.1z"></path> <path class="st0" d="M295.9,32.3c7-3,10.7-10,8.2-15.7c-2.4-5.6-10.1-7.8-17.1-4.8c-7,3-10.7,10-8.2,15.7 C281.2,33.2,288.9,35.3,295.9,32.3z"></path> <path class="st1" d="M39.6,18.7h-7.3V35H8.4L27.2,0.8h-8L0.1,35.6L0,35.8V42h32.2v13.7h7.3V41.9h7.5V35l-7.5,0V18.7z"></path> <path class="st1" d="M212.6,9.6c-13.2,0-23.1,10.1-23.1,23.6c0,13.4,9.9,23.6,23.1,23.6c3.3,0.1,6.6-0.5,9.6-1.8 c3-1.3,5.7-3.2,8-5.6c2-2.2,3.6-4.7,4.6-7.5l0.1-0.2h-7.5v0.1c-0.9,1.5-2.1,2.9-3.4,4c-3.2,2.7-7.2,4.1-11.4,4 c-8.2,0-14.6-5.8-15.6-14.1h38.7v-2.8c0.1-3.1-0.5-6.1-1.6-8.9c-1.1-2.8-2.8-5.4-5-7.6s-4.7-3.8-7.6-5 C218.7,10.1,215.7,9.6,212.6,9.6L212.6,9.6z M197.2,29c0.7-3.6,2.6-6.8,5.4-9c2.8-2.3,6.4-3.4,10-3.3c6.4,0,13.9,3.9,15.2,12.3 H197.2z"></path> <path class="st1" d="M250.5,0.8H243v9.9h-5.9v7h5.9V42c0,9.1,5,14.1,14.1,14.1h9.9v-7h-9.9c-4.4,0-6.6-2.4-6.6-7.1V17.8h16.8v-7 h-16.8L250.5,0.8z"></path> <path class="st1" d="M126.6,29.8c-7.5-1.5-14.9-3.1-14.9-7.5c0-2.6,3.1-5.9,10-5.9c4.7,0,7.7,1.7,9.4,3.4c1,1,1.8,2.1,2.4,3.3h7.7 c-0.7-2.5-1.9-4.8-3.4-6.8c-2.9-3.4-7.6-6.8-16-6.8c-11.3,0-17.2,5.9-17.2,12.7c0,8.4,7.5,11.7,14.9,13.3c7.5,1.6,14.9,3.1,14.9,7.5 c0,3.6-3.1,6.8-11.3,6.8c-1.9,0.1-3.9-0.2-5.7-0.9c-1.8-0.7-3.4-1.8-4.8-3.2c-1.1-1.2-2-2.6-2.6-4.1h-7.7c0.8,2.7,2.1,5.3,3.8,7.5 c3,3.7,8.2,7.5,17,7.5c12.2,0,18.6-6.3,18.6-13.6C141.5,34.8,134.1,31.4,126.6,29.8z"></path> <path class="st1" d="M169.8,29.8c-7.5-1.5-14.9-3.1-14.9-7.5c0-2.6,3.1-5.9,10-5.9c4.7,0,7.7,1.7,9.4,3.4c1,1,1.8,2.1,2.3,3.3h7.7 c-0.7-2.5-1.9-4.8-3.4-6.8c-2.9-3.4-7.6-6.8-16-6.8c-11.3,0-17.2,5.9-17.2,12.7c0,8.4,7.4,11.7,14.9,13.3c7.5,1.6,14.9,3.1,14.9,7.5 c0,3.6-3.1,6.8-11.3,6.8c-1.9,0.1-3.9-0.2-5.7-0.9c-1.8-0.7-3.4-1.8-4.8-3.2c-1.1-1.2-2-2.6-2.6-4.1h-7.7c0.8,2.7,2.1,5.3,3.8,7.5 c3,3.7,8.2,7.5,17,7.5c12.2,0,18.6-6.3,18.6-13.6C184.7,34.8,177.3,31.4,169.8,29.8z"></path> <path class="st1" d="M59.5,55.9c1.1-3.6,3.4-6.7,6.4-9c3-2.2,6.7-3.5,10.4-3.5c3.8,0,7.4,1.3,10.4,3.5c3,2.2,5.3,5.4,6.4,9h6.7 c-1.2-5.4-4.2-10.2-8.4-13.6c-4.3-3.5-9.6-5.4-15.1-5.5c-5.5,0.1-10.8,2-15.1,5.5s-7.2,8.3-8.4,13.6H59.5z"></path> <path class="st1" d="M59.5,55.9l14.3-39.6h5l14.4,39.6h8.1l-14-38.7C86.4,15,85,13.1,83,11.7c-2-1.4-4.3-2.1-6.7-2.1l0,0 c-2.4,0-4.7,0.7-6.7,2.1s-3.4,3.3-4.3,5.6l-14,38.7L59.5,55.9z"></path> </svg> 