<svg width="63" height="63" viewBox="0 0 63 63" fill="none" xmlns="http://www.w3.org/2000/svg">
<g filter="url(#filter0_d_2051_519)">
<path d="M45.3125 1.49994H17.6875C10.9565 1.49994 5.5 6.95647 5.5 13.6874V41.3124C5.5 48.0434 10.9565 53.4999 17.6875 53.4999H45.3125C52.0435 53.4999 57.5 48.0434 57.5 41.3124V13.6874C57.5 6.95647 52.0435 1.49994 45.3125 1.49994Z" fill="url(#paint0_linear_2051_519)"/>
<path d="M45.3125 1.49994H17.6875C10.9565 1.49994 5.5 6.95647 5.5 13.6874V41.3124C5.5 48.0434 10.9565 53.4999 17.6875 53.4999H45.3125C52.0435 53.4999 57.5 48.0434 57.5 41.3124V13.6874C57.5 6.95647 52.0435 1.49994 45.3125 1.49994Z" stroke="url(#paint1_linear_2051_519)" stroke-width="3"/>
<path d="M35.317 7.65173L20.8125 29.0267H30.7366L27.683 47.3482L42.1875 25.9732H32.2634L35.317 7.65173Z" fill="url(#paint2_linear_2051_519)"/>
<path d="M35.317 7.65173L20.8125 29.0267H30.7366L27.683 47.3482L42.1875 25.9732H32.2634L35.317 7.65173Z" fill="url(#paint3_linear_2051_519)"/>
<path d="M35.317 7.65173L20.8125 29.0267H30.7366L27.683 47.3482L42.1875 25.9732H32.2634L35.317 7.65173Z" fill="url(#paint4_linear_2051_519)"/>
</g>
<defs>
<filter id="filter0_d_2051_519" x="0" y="0" width="63" height="63" filterUnits="userSpaceOnUse" color-interpolation-filters="sRGB">
<feFlood flood-opacity="0" result="BackgroundImageFix"/>
<feColorMatrix in="SourceAlpha" type="matrix" values="0 0 0 0 0 0 0 0 0 0 0 0 0 0 0 0 0 0 127 0" result="hardAlpha"/>
<feOffset dy="4"/>
<feGaussianBlur stdDeviation="2"/>
<feComposite in2="hardAlpha" operator="out"/>
<feColorMatrix type="matrix" values="0 0 0 0 0 0 0 0 0 0 0 0 0 0 0 0 0 0 0.15 0"/>
<feBlend mode="normal" in2="BackgroundImageFix" result="effect1_dropShadow_2051_519"/>
<feBlend mode="normal" in="SourceGraphic" in2="effect1_dropShadow_2051_519" result="shape"/>
</filter>
<linearGradient id="paint0_linear_2051_519" x1="5.5" y1="1.49994" x2="57.5" y2="53.4999" gradientUnits="userSpaceOnUse">
<stop stop-color="#196FFA"/>
<stop offset="0.6" stop-color="#3D9AF8"/>
<stop offset="1" stop-color="#5BBCF5"/>
</linearGradient>
<linearGradient id="paint1_linear_2051_519" x1="5.5" y1="1.49994" x2="5.5" y2="53.4999" gradientUnits="userSpaceOnUse">
<stop stop-color="white" stop-opacity="0.15"/>
<stop offset="1" stop-color="white" stop-opacity="0.02"/>
</linearGradient>
<linearGradient id="paint2_linear_2051_519" x1="24.0187" y1="7.65173" x2="52.6031" y2="29.6397" gradientUnits="userSpaceOnUse">
<stop stop-color="#FDE047"/>
<stop offset="0.3" stop-color="#EAB308"/>
<stop offset="1" stop-color="#CA8A04"/>
</linearGradient>
<linearGradient id="paint3_linear_2051_519" x1="42.1875" y1="47.3482" x2="9.04644" y2="29.503" gradientUnits="userSpaceOnUse">
<stop stop-color="#854D0E" stop-opacity="0.5"/>
<stop offset="1" stop-color="white" stop-opacity="0"/>
</linearGradient>
<linearGradient id="paint4_linear_2051_519" x1="20.8125" y1="7.65173" x2="20.8125" y2="47.3482" gradientUnits="userSpaceOnUse">
<stop stop-color="white" stop-opacity="0.4"/>
<stop offset="0.5" stop-color="white" stop-opacity="0"/>
</linearGradient>
</defs>
</svg>
