<svg width="63" height="63" viewBox="0 0 63 63" fill="none" xmlns="http://www.w3.org/2000/svg">
<g filter="url(#filter0_d_2051_532)">
<path d="M45.3125 1.5H17.6875C10.9565 1.5 5.5 6.95653 5.5 13.6875V41.3125C5.5 48.0435 10.9565 53.5 17.6875 53.5H45.3125C52.0435 53.5 57.5 48.0435 57.5 41.3125V13.6875C57.5 6.95653 52.0435 1.5 45.3125 1.5Z" fill="url(#paint0_linear_2051_532)"/>
<path d="M32.4132 27.265L12 36.8252C12.7788 38.3209 13.8203 39.6649 15.0751 40.7929L36.1825 30.9163L37.8271 32.5496L32.0792 44.8205C33.9122 44.4793 35.702 43.9372 37.416 43.2043C37.7757 43.0504 38.1269 42.888 38.4782 42.717L41.4849 36.3036C42.0734 35.0362 42.2591 33.6194 42.0172 32.2436C41.7752 30.8678 41.1171 29.5989 40.1314 28.6075C39.1365 27.6231 37.8634 26.9667 36.4834 26.7267C35.1035 26.4866 33.6829 26.6745 32.4132 27.265Z" fill="url(#paint1_linear_2051_532)"/>
<path d="M49.1581 32.5752C50.0965 30.7404 50.7027 28.7545 50.9485 26.709C49.3957 26.8608 47.9431 27.5435 46.8367 28.6416C45.8509 29.6331 45.1929 30.902 44.9509 32.2778C44.7089 33.6536 44.8946 35.0704 45.4831 36.3377L45.9029 37.1928C47.1935 35.798 48.286 34.2327 49.1495 32.5409L49.1581 32.5752Z" fill="url(#paint2_linear_2051_532)"/>
<path fill-rule="evenodd" clip-rule="evenodd" d="M51.0006 23.8786C50.8825 22.3647 50.5179 20.8801 49.9213 19.4833C48.9794 17.3154 47.5065 15.4188 45.6381 13.9678L45.5183 14.2328C44.9298 15.5002 44.7441 16.917 44.986 18.2928C45.228 19.6686 45.8861 20.9375 46.8718 21.9289C47.9843 23.031 49.4415 23.7192 51.0006 23.8786Z" fill="url(#paint3_linear_2051_532)"/>
<path d="M37.8457 17.9611L36.201 19.6114L22.2552 13.0954C20.5646 13.978 18.9809 15.051 17.5352 16.2935L32.4403 23.2542C33.3402 23.6785 34.3235 23.8976 35.3187 23.8956C37.1296 23.8947 38.8665 23.1785 40.1499 21.9032C41.1357 20.9117 41.7938 19.6428 42.0357 18.2669C42.2777 16.8911 42.092 15.4744 41.5035 14.2071L40.0387 11.0945C38.1413 10.5158 36.1716 10.2077 34.1879 10.1794L37.8457 17.9611Z" fill="url(#paint4_linear_2051_532)"/>
<path d="M45.3125 1.5H17.6875C10.9565 1.5 5.5 6.95653 5.5 13.6875V41.3125C5.5 48.0435 10.9565 53.5 17.6875 53.5H45.3125C52.0435 53.5 57.5 48.0435 57.5 41.3125V13.6875C57.5 6.95653 52.0435 1.5 45.3125 1.5Z" stroke="url(#paint5_linear_2051_532)" stroke-width="3"/>
</g>
<defs>
<filter id="filter0_d_2051_532" x="0" y="0" width="63" height="63" filterUnits="userSpaceOnUse" color-interpolation-filters="sRGB">
<feFlood flood-opacity="0" result="BackgroundImageFix"/>
<feColorMatrix in="SourceAlpha" type="matrix" values="0 0 0 0 0 0 0 0 0 0 0 0 0 0 0 0 0 0 127 0" result="hardAlpha"/>
<feOffset dy="4"/>
<feGaussianBlur stdDeviation="2"/>
<feComposite in2="hardAlpha" operator="out"/>
<feColorMatrix type="matrix" values="0 0 0 0 0 0 0 0 0 0 0 0 0 0 0 0 0 0 0.15 0"/>
<feBlend mode="normal" in2="BackgroundImageFix" result="effect1_dropShadow_2051_532"/>
<feBlend mode="normal" in="SourceGraphic" in2="effect1_dropShadow_2051_532" result="shape"/>
</filter>
<linearGradient id="paint0_linear_2051_532" x1="5.5" y1="1.5" x2="57.5" y2="53.5" gradientUnits="userSpaceOnUse">
<stop stop-color="#1E293B"/>
<stop offset="0.6" stop-color="#0F172A"/>
<stop offset="1" stop-color="#020617"/>
</linearGradient>
<linearGradient id="paint1_linear_2051_532" x1="27.0602" y1="26.6251" x2="27.0602" y2="44.8205" gradientUnits="userSpaceOnUse">
<stop stop-color="white"/>
<stop offset="1" stop-color="#CCCACA"/>
</linearGradient>
<linearGradient id="paint2_linear_2051_532" x1="47.8981" y1="26.709" x2="47.8981" y2="37.1928" gradientUnits="userSpaceOnUse">
<stop stop-color="white"/>
<stop offset="1" stop-color="#CCCACA"/>
</linearGradient>
<linearGradient id="paint3_linear_2051_532" x1="47.9417" y1="13.9678" x2="47.9417" y2="23.8786" gradientUnits="userSpaceOnUse">
<stop stop-color="white"/>
<stop offset="1" stop-color="#CCCACA"/>
</linearGradient>
<linearGradient id="paint4_linear_2051_532" x1="29.8371" y1="10.1794" x2="29.8371" y2="23.8956" gradientUnits="userSpaceOnUse">
<stop stop-color="white"/>
<stop offset="1" stop-color="#CCCACA"/>
</linearGradient>
<linearGradient id="paint5_linear_2051_532" x1="5.5" y1="1.5" x2="5.5" y2="53.5" gradientUnits="userSpaceOnUse">
<stop stop-color="white" stop-opacity="0.15"/>
<stop offset="1" stop-color="white" stop-opacity="0.02"/>
</linearGradient>
</defs>
</svg>
